<mxfile host="app.diagrams.net" modified="2023-04-27T10:57:40.045Z" agent="Mozilla/5.0 (Windows NT 10.0; Win64; x64) AppleWebKit/537.36 (KHTML, like Gecko) Chrome/112.0.0.0 Safari/537.36" version="21.2.3" etag="g8k_Hkxvoea9DJpPrQJo" type="github">
  <diagram name="第 1 页" id="OdyEhuzgDzjbMn6xz-bp">
    <mxGraphModel>
      <root>
        <mxCell id="0" />
        <mxCell id="1" parent="0" />
      </root>
    </mxGraphModel>
  </diagram>
</mxfile>
